# xmcd
#
# Track frame offsets:
#	150
#	13251
#	30428
#	43753
#	58706
#	71055
#	86101
#	100945
#	112123
#	122767
#	134258
#	144732
#
# Disc length: 2110 seconds
#
# Revision: 1
# Processed by: cddbd v1.5.2PL0 Copyright (c) Steve Scherf et al.
# Submitted via: audiograbber 1.83.01
#
DISCID=b1083c0c
DTITLE=Kenny Rogers - Kenny Rogers
DYEAR=2006
DGENRE=
TTITLE0=Ruby, Don't Take Your Love To Town
TTITLE1=Something's Burning
TTITLE2=But You Know I love You
TTITLE3=Tell It All Brothers
TTITLE4=Ruben James
TTITLE5=Just Dropped In (to see what condition my condition was in)
TTITLE6=Heed The Call
TTITLE7=If Wishes Were Horses
TTITLE8=She Even Woke Me Up To Say Goodbye
TTITLE9=Me and Bobby McGee
TTITLE10=We All Got To Help Each Other
TTITLE11=I'm Gonna Sing You A Sad Song Suzy
EXTD=Disc 2 of a 2 CD compilation by Madacy Entertainment LP
EXTT0=
EXTT1=
EXTT2=
EXTT3=
EXTT4=
EXTT5=
EXTT6=
EXTT7=
EXTT8=
EXTT9=
EXTT10=
EXTT11=
PLAYORDER=
